<?xml version="1.0" encoding="UTF-8" standalone="no"?>
<!-- Created with Inkscape (http://www.inkscape.org/) -->

<svg
   xmlns:dc="http://purl.org/dc/elements/1.1/"
   xmlns:cc="http://creativecommons.org/ns#"
   xmlns:rdf="http://www.w3.org/1999/02/22-rdf-syntax-ns#"
   xmlns:svg="http://www.w3.org/2000/svg"
   xmlns="http://www.w3.org/2000/svg"
   xmlns:sodipodi="http://sodipodi.sourceforge.net/DTD/sodipodi-0.dtd"
   xmlns:inkscape="http://www.inkscape.org/namespaces/inkscape"
   width="8.0000029"
   height="8.000001"
   viewBox="0 0 2.1166673 2.1166669"
   version="1.1"
   id="svg8"
   inkscape:version="0.92.5 (2060ec1f9f, 2020-04-08)"
   sodipodi:docname="device-write-callsign.svg">
  <defs
     id="defs2">
    <clipPath
       clipPathUnits="userSpaceOnUse"
       id="clipPath1133">
      <g
         inkscape:label="Clip"
         id="use1135">
        <path
           style="fill:#000000;fill-opacity:1;stroke:none;stroke-width:0.13229167;stroke-miterlimit:4;stroke-dasharray:none;stroke-opacity:1"
           d="M 1.6536461,1.1244791 C 1.5312839,1.1241138 1.4356486,1.2300943 1.4051898,1.3415302 c -0.043374,0.1459224 -4.15e-5,0.3277536 0.1340136,0.4117779 0.08671,0.056248 0.2076503,0.036095 0.2775347,-0.03794 C 1.9604913,1.5710071 1.9520889,1.3002891 1.7905716,1.1723818 1.7515364,1.1424489 1.7030939,1.1242425 1.6536461,1.1244791 Z M 1.3771577,1.7859376 c -0.1321752,0.00325 -0.2488646,0.1189316 -0.2523516,0.2512727 -7.223e-4,0.048525 -1.383e-4,0.097069 -3.269e-4,0.1456024 0.3527779,0 0.7055558,0 1.0583337,0 C 2.1799107,2.1110501 2.19137,2.0372783 2.1697338,1.9675716 2.1377748,1.8649265 2.0374899,1.7892481 1.9301344,1.7859376 1.8370243,1.8965198 1.6757036,1.9511129 1.5379085,1.8976492 1.4758198,1.8751285 1.4207623,1.8352584 1.3771577,1.7859376 Z"
           id="path1140"
           inkscape:connector-curvature="0" />
      </g>
    </clipPath>
  </defs>
  <sodipodi:namedview
     id="base"
     pagecolor="#ffffff"
     bordercolor="#666666"
     borderopacity="1.0"
     inkscape:pageopacity="0.0"
     inkscape:pageshadow="2"
     inkscape:zoom="63.356767"
     inkscape:cx="4.5962767"
     inkscape:cy="2.5648789"
     inkscape:document-units="mm"
     inkscape:current-layer="layer2"
     showgrid="false"
     units="px"
     fit-margin-top="0"
     fit-margin-left="0"
     fit-margin-right="0"
     fit-margin-bottom="0"
     inkscape:window-width="1848"
     inkscape:window-height="1016"
     inkscape:window-x="72"
     inkscape:window-y="27"
     inkscape:window-maximized="1"
     showguides="true"
     inkscape:guide-bbox="true">
    <sodipodi:guide
       position="2.1166674,1.852084"
       orientation="1,0"
       id="guide1001"
       inkscape:locked="false" />
    <sodipodi:guide
       position="1.0816063,-0.00025297507"
       orientation="0,1"
       id="guide1003"
       inkscape:locked="false" />
  </sodipodi:namedview>
  <metadata
     id="metadata5">
    <rdf:RDF>
      <cc:Work
         rdf:about="">
        <dc:format>image/svg+xml</dc:format>
        <dc:type
           rdf:resource="http://purl.org/dc/dcmitype/StillImage" />
        <dc:title></dc:title>
      </cc:Work>
    </rdf:RDF>
  </metadata>
  <g
     inkscape:label="BG"
     inkscape:groupmode="layer"
     id="layer1"
     transform="translate(-8.2693825,-24.7467)">
    <path
       style="stroke-width:0.99999994"
       d="M 0 0 L 0 1 L 8 1 L 8 0 L 0 0 z M 4 2 L 1 5 L 3 5 L 3 8 L 3.7207031 8 C 3.4380497 7.441601 3.6300501 6.6348988 4.5097656 6.1933594 C 4.7656962 5.7718851 4.4158214 3.88468 5.6367188 3.6367188 L 4 2 z "
       transform="matrix(0.26458333,0,0,0.26458333,8.2693825,24.7467)"
       id="path889" />
  </g>
  <g
     inkscape:groupmode="layer"
     id="layer3"
     inkscape:label="Mask"
     style="display:inline" />
  <g
     inkscape:groupmode="layer"
     id="layer2"
     inkscape:label="FG">
    <path
       id="path1045"
       d="m 1.5875,1.0583336 c -0.1455208,0 -0.2645833,0.1481666 -0.2645833,0.3307291 0,0.1825625 0.1190625,0.3307292 0.2645833,0.3307292 0.1455208,0 0.2645833,-0.1481667 0.2645833,-0.3307292 0,-0.1825625 -0.1190625,-0.3307291 -0.2645833,-0.3307291 z M 1.3110104,1.7197919 C 1.1707812,1.7264065 1.0583333,1.8415002 1.0583333,1.9843752 V 2.1166669 H 2.1166667 V 1.9843752 c 0,-0.142875 -0.111125,-0.2579687 -0.2526771,-0.2645833 -0.071438,0.080698 -0.1693334,0.1322917 -0.2764896,0.1322917 -0.1071563,0 -0.2050521,-0.051594 -0.2764896,-0.1322917 z"
       inkscape:connector-curvature="0"
       style="stroke-width:0.13229166" />
  </g>
</svg>
