<?xml version="1.0" encoding="UTF-8" standalone="no"?>
<svg
   width="8"
   height="8"
   viewBox="0 0 8 8"
   version="1.1"
   id="svg118"
   sodipodi:docname="device-write-satellites.svg"
   inkscape:version="1.2.2 (b0a8486541, 2022-12-01)"
   xml:space="preserve"
   xmlns:inkscape="http://www.inkscape.org/namespaces/inkscape"
   xmlns:sodipodi="http://sodipodi.sourceforge.net/DTD/sodipodi-0.dtd"
   xmlns="http://www.w3.org/2000/svg"
   xmlns:svg="http://www.w3.org/2000/svg"><defs
     id="defs122" /><sodipodi:namedview
     id="namedview120"
     pagecolor="#ffffff"
     bordercolor="#666666"
     borderopacity="1.0"
     inkscape:showpageshadow="2"
     inkscape:pageopacity="0.0"
     inkscape:pagecheckerboard="0"
     inkscape:deskcolor="#d1d1d1"
     showgrid="false"
     inkscape:zoom="90.509668"
     inkscape:cx="1.1545728"
     inkscape:cy="4.8779319"
     inkscape:window-width="2560"
     inkscape:window-height="1368"
     inkscape:window-x="0"
     inkscape:window-y="0"
     inkscape:window-maximized="1"
     inkscape:current-layer="svg118" /><path
     fill="#e5e5e5"
     d="M0 0v1h8v-1h-8zm4 2l-3 3h2v3h2v-3h2l-3-3z"
     id="path116" /><path
     fill="#e5e5e5"
     d="m 5.3094178,3.0720554 c -0.0919,-0.0919 -0.24048,-0.0919 -0.33139,0 l -0.93844,0.93826 c -0.0919,0.0919 -0.0919,0.24043 0,0.33132 l 0.87392,0.87375 -0.15152,0.15149 c -0.24145,-0.11141 -0.5093,-0.17396 -0.79181,-0.17396 -0.30988,0 -0.60118,0.0753 -0.85828,0.20719 -0.088,0.0459 -0.10068,0.16322 -0.0303,0.23261 l 1.05183,1.05261 -0.16031,0.16029 c -0.0254,-0.007 -0.0528,-0.0108 -0.0811,-0.0108 -0.17302,0 -0.31281,0.13976 -0.31281,0.31275 0,0.17299 0.13979,0.31275 0.31281,0.31275 0.17303,0 0.31281,-0.13976 0.31281,-0.31275 0,-0.0283 -0.004,-0.0547 -0.0107,-0.0811 l 0.16032,-0.16029 1.05183,1.05163 c 0.0704,0.0704 0.18769,0.0577 0.23266,-0.0303 0.13295,-0.25704 0.20822,-0.54829 0.20822,-0.85811 0,-0.28245 -0.0626,-0.55025 -0.17401,-0.79068 l 0.15152,-0.15149 0.87295,0.87376 c 0.0919,0.0919 0.24047,0.0919 0.33138,0 l 0.93845,-0.93826 c 0.0919,-0.0919 0.0919,-0.24043 0,-0.33132 l -0.87393,-0.87376 0.53765,-0.53754 c 0.12219,-0.12217 0.12219,-0.32057 0,-0.44274 l -0.46922,-0.46913 c -0.12219,-0.12217 -0.32063,-0.12217 -0.44283,0 l -0.53764,0.53755 z m 1.55429,3.43051 -0.70774,-0.70761 0.60705,-0.60693 0.70774,0.70858 -0.60705,0.60693 z m -1.61979,-1.6185 -0.70774,-0.7076 0.60706,-0.60693 0.70774,0.7076 z"
     id="path440"
     style="stroke-width:0.3;stroke:#000000;stroke-opacity:1;stroke-dasharray:none;stroke-linejoin:round" /></svg>
